<mxfile host="app.diagrams.net" modified="2022-06-15T11:25:05.324Z" agent="5.0 (Macintosh; Intel Mac OS X 10_15_7) AppleWebKit/537.36 (KHTML, like Gecko) Chrome/102.0.5005.115 Safari/537.36" etag="47TC6-kFR5ia31jrmgEY" version="20.0.1" type="github">
  <diagram id="CyTpps-32Fh2xnvXaoju" name="Page-1">
    <mxGraphModel dx="1023" dy="536" grid="1" gridSize="10" guides="1" tooltips="1" connect="1" arrows="1" fold="1" page="1" pageScale="1" pageWidth="3300" pageHeight="2339" math="0" shadow="0">
      <root>
        <mxCell id="0" />
        <mxCell id="1" parent="0" />
        <mxCell id="A6Y4VwrHQMCKhlMzKKBG-87" value="" style="rounded=0;whiteSpace=wrap;html=1;fontSize=10;strokeColor=#000033;fillColor=none;" vertex="1" parent="1">
          <mxGeometry x="20" y="406.5" width="370" height="263.5" as="geometry" />
        </mxCell>
        <mxCell id="A6Y4VwrHQMCKhlMzKKBG-59" value="" style="rounded=0;whiteSpace=wrap;html=1;fontSize=10;strokeColor=#FF3333;fillColor=none;direction=south;" vertex="1" parent="1">
          <mxGeometry x="270" y="487" width="87" height="163" as="geometry" />
        </mxCell>
        <mxCell id="A6Y4VwrHQMCKhlMzKKBG-51" value="" style="rounded=0;whiteSpace=wrap;html=1;fontSize=10;strokeColor=#FF3333;fillColor=none;direction=south;" vertex="1" parent="1">
          <mxGeometry x="156" y="486" width="87" height="163" as="geometry" />
        </mxCell>
        <mxCell id="A6Y4VwrHQMCKhlMzKKBG-36" value="" style="rounded=0;whiteSpace=wrap;html=1;fontSize=10;strokeColor=#FF3333;fillColor=none;direction=south;" vertex="1" parent="1">
          <mxGeometry x="44" y="487" width="87" height="163" as="geometry" />
        </mxCell>
        <mxCell id="A6Y4VwrHQMCKhlMzKKBG-12" value="" style="rounded=0;whiteSpace=wrap;html=1;dashed=1;fillColor=none;strokeColor=#FF9933;" vertex="1" parent="1">
          <mxGeometry x="154" y="73" width="370" height="277" as="geometry" />
        </mxCell>
        <mxCell id="D9bkAr4RUW45dbeRzFOR-1" value="&lt;font style=&quot;font-size: 12px;&quot;&gt;Serverless&lt;/font&gt;" style="sketch=0;points=[[0,0,0],[0.25,0,0],[0.5,0,0],[0.75,0,0],[1,0,0],[0,1,0],[0.25,1,0],[0.5,1,0],[0.75,1,0],[1,1,0],[0,0.25,0],[0,0.5,0],[0,0.75,0],[1,0.25,0],[1,0.5,0],[1,0.75,0]];outlineConnect=0;fontColor=#232F3E;gradientColor=#945DF2;gradientDirection=north;fillColor=#5A30B5;strokeColor=#ffffff;dashed=0;verticalLabelPosition=bottom;verticalAlign=top;align=center;html=1;fontSize=12;fontStyle=0;aspect=fixed;shape=mxgraph.aws4.resourceIcon;resIcon=mxgraph.aws4.serverless;" parent="1" vertex="1">
          <mxGeometry x="310" y="10" width="40" height="40" as="geometry" />
        </mxCell>
        <mxCell id="D9bkAr4RUW45dbeRzFOR-4" value="DataStorage" style="sketch=0;points=[[0.015,0.015,0],[0.985,0.015,0],[0.985,0.985,0],[0.015,0.985,0],[0.25,0,0],[0.5,0,0],[0.75,0,0],[1,0.25,0],[1,0.5,0],[1,0.75,0],[0.75,1,0],[0.5,1,0],[0.25,1,0],[0,0.75,0],[0,0.5,0],[0,0.25,0]];verticalLabelPosition=bottom;html=1;verticalAlign=top;aspect=fixed;align=center;pointerEvents=1;shape=mxgraph.cisco19.rect;prIcon=storage;fillColor=#FAFAFA;strokeColor=#005073;fontSize=12;" parent="1" vertex="1">
          <mxGeometry x="298" y="80" width="64" height="50" as="geometry" />
        </mxCell>
        <mxCell id="A6Y4VwrHQMCKhlMzKKBG-1" value="Amazon S3" style="sketch=0;outlineConnect=0;fontColor=#232F3E;gradientColor=none;strokeColor=#ffffff;fillColor=#232F3E;dashed=0;verticalLabelPosition=middle;verticalAlign=bottom;align=center;html=1;whiteSpace=wrap;fontSize=10;fontStyle=1;spacing=3;shape=mxgraph.aws4.productIcon;prIcon=mxgraph.aws4.s3;" vertex="1" parent="1">
          <mxGeometry x="208" y="168" width="40" height="70" as="geometry" />
        </mxCell>
        <mxCell id="A6Y4VwrHQMCKhlMzKKBG-2" value="Amazon&#xa;Aurora" style="sketch=0;outlineConnect=0;fontColor=#232F3E;gradientColor=none;strokeColor=#ffffff;fillColor=#232F3E;dashed=0;verticalLabelPosition=middle;verticalAlign=bottom;align=center;html=1;whiteSpace=wrap;fontSize=10;fontStyle=1;spacing=3;shape=mxgraph.aws4.productIcon;prIcon=mxgraph.aws4.aurora;" vertex="1" parent="1">
          <mxGeometry x="308" y="168" width="40" height="70" as="geometry" />
        </mxCell>
        <mxCell id="A6Y4VwrHQMCKhlMzKKBG-3" value="Amazon DynamoDB" style="sketch=0;outlineConnect=0;fontColor=#232F3E;gradientColor=none;strokeColor=#ffffff;fillColor=#232F3E;dashed=0;verticalLabelPosition=middle;verticalAlign=bottom;align=center;html=1;whiteSpace=wrap;fontSize=10;fontStyle=1;spacing=3;shape=mxgraph.aws4.productIcon;prIcon=mxgraph.aws4.dynamodb;" vertex="1" parent="1">
          <mxGeometry x="208" y="250" width="40" height="70" as="geometry" />
        </mxCell>
        <mxCell id="A6Y4VwrHQMCKhlMzKKBG-4" value="&lt;font style=&quot;font-size: 10px;&quot;&gt;&lt;b&gt;TimeStream&lt;/b&gt;&lt;/font&gt;" style="sketch=0;points=[[0,0,0],[0.25,0,0],[0.5,0,0],[0.75,0,0],[1,0,0],[0,1,0],[0.25,1,0],[0.5,1,0],[0.75,1,0],[1,1,0],[0,0.25,0],[0,0.5,0],[0,0.75,0],[1,0.25,0],[1,0.5,0],[1,0.75,0]];outlineConnect=0;fontColor=#232F3E;gradientColor=#4D72F3;gradientDirection=north;fillColor=#3334B9;strokeColor=#ffffff;dashed=0;verticalLabelPosition=bottom;verticalAlign=top;align=center;html=1;fontSize=12;fontStyle=0;shape=mxgraph.aws4.resourceIcon;resIcon=mxgraph.aws4.timestream;" vertex="1" parent="1">
          <mxGeometry x="402" y="168" width="50" height="40" as="geometry" />
        </mxCell>
        <mxCell id="A6Y4VwrHQMCKhlMzKKBG-5" value="&lt;font style=&quot;font-size: 10px;&quot;&gt;&lt;b&gt;Quatum &lt;br&gt;Ledger db&lt;/b&gt;&lt;/font&gt;" style="sketch=0;points=[[0,0,0],[0.25,0,0],[0.5,0,0],[0.75,0,0],[1,0,0],[0,1,0],[0.25,1,0],[0.5,1,0],[0.75,1,0],[1,1,0],[0,0.25,0],[0,0.5,0],[0,0.75,0],[1,0.25,0],[1,0.5,0],[1,0.75,0]];outlineConnect=0;fontColor=#232F3E;gradientColor=#4D72F3;gradientDirection=north;fillColor=#3334B9;strokeColor=#ffffff;dashed=0;verticalLabelPosition=bottom;verticalAlign=top;align=center;html=1;fontSize=12;fontStyle=0;shape=mxgraph.aws4.resourceIcon;resIcon=mxgraph.aws4.quantum_ledger_database;" vertex="1" parent="1">
          <mxGeometry x="318" y="250" width="40" height="48" as="geometry" />
        </mxCell>
        <mxCell id="A6Y4VwrHQMCKhlMzKKBG-7" value="&lt;font style=&quot;font-size: 10px;&quot;&gt;&lt;b&gt;KeySpaces&lt;/b&gt;&lt;/font&gt;" style="sketch=0;points=[[0,0,0],[0.25,0,0],[0.5,0,0],[0.75,0,0],[1,0,0],[0,1,0],[0.25,1,0],[0.5,1,0],[0.75,1,0],[1,1,0],[0,0.25,0],[0,0.5,0],[0,0.75,0],[1,0.25,0],[1,0.5,0],[1,0.75,0]];outlineConnect=0;fontColor=#232F3E;gradientColor=#4D72F3;gradientDirection=north;fillColor=#3334B9;strokeColor=#ffffff;dashed=0;verticalLabelPosition=bottom;verticalAlign=top;align=center;html=1;fontSize=12;fontStyle=0;shape=mxgraph.aws4.resourceIcon;resIcon=mxgraph.aws4.keyspaces;" vertex="1" parent="1">
          <mxGeometry x="402" y="250" width="50" height="48" as="geometry" />
        </mxCell>
        <mxCell id="A6Y4VwrHQMCKhlMzKKBG-16" value="&lt;span style=&quot;font-size: 12px;&quot;&gt;Î» Functions&lt;br style=&quot;font-size: 12px;&quot;&gt;&lt;/span&gt;" style="text;html=1;align=left;verticalAlign=middle;resizable=0;points=[];autosize=1;strokeColor=default;fillColor=none;fontSize=12;" vertex="1" parent="1">
          <mxGeometry x="773" y="50" width="80" height="20" as="geometry" />
        </mxCell>
        <mxCell id="A6Y4VwrHQMCKhlMzKKBG-17" value="&lt;font style=&quot;font-size: 12px;&quot;&gt;Database driver&lt;/font&gt;" style="text;html=1;align=left;verticalAlign=middle;resizable=0;points=[];autosize=1;strokeColor=default;fillColor=none;fontSize=12;" vertex="1" parent="1">
          <mxGeometry x="765" y="70" width="100" height="20" as="geometry" />
        </mxCell>
        <mxCell id="A6Y4VwrHQMCKhlMzKKBG-18" value="IAM Role Based Access&lt;br&gt;&amp;nbsp; &amp;nbsp; &amp;nbsp; &amp;nbsp; &amp;nbsp; &amp;nbsp; &amp;nbsp;or&lt;br&gt;encrypted credentials" style="text;html=1;align=left;verticalAlign=middle;resizable=0;points=[];autosize=1;strokeColor=default;fillColor=none;fontSize=12;" vertex="1" parent="1">
          <mxGeometry x="750" y="140" width="140" height="50" as="geometry" />
        </mxCell>
        <mxCell id="A6Y4VwrHQMCKhlMzKKBG-19" value="" style="strokeWidth=2;html=1;shape=mxgraph.flowchart.annotation_1;align=left;pointerEvents=1;fontColor=#000033;fillColor=none;strokeColor=#3399FF;" vertex="1" parent="1">
          <mxGeometry x="755" y="96" width="12" height="37" as="geometry" />
        </mxCell>
        <mxCell id="A6Y4VwrHQMCKhlMzKKBG-20" value="" style="strokeWidth=2;html=1;shape=mxgraph.flowchart.annotation_1;align=left;pointerEvents=1;fontColor=#000033;fillColor=none;direction=west;strokeColor=#3399FF;" vertex="1" parent="1">
          <mxGeometry x="858" y="96" width="12" height="37" as="geometry" />
        </mxCell>
        <mxCell id="A6Y4VwrHQMCKhlMzKKBG-21" value="Lambda Deployment&lt;br&gt;package" style="text;html=1;align=left;verticalAlign=middle;resizable=0;points=[];autosize=1;strokeColor=none;fillColor=none;fontSize=12;" vertex="1" parent="1">
          <mxGeometry x="756" y="100" width="130" height="30" as="geometry" />
        </mxCell>
        <mxCell id="A6Y4VwrHQMCKhlMzKKBG-22" value="" style="strokeWidth=2;html=1;shape=mxgraph.flowchart.annotation_1;align=left;pointerEvents=1;fontColor=#000033;fillColor=none;strokeColor=#3399FF;" vertex="1" parent="1">
          <mxGeometry x="757" y="190" width="12" height="37" as="geometry" />
        </mxCell>
        <mxCell id="A6Y4VwrHQMCKhlMzKKBG-23" value="" style="strokeWidth=2;html=1;shape=mxgraph.flowchart.annotation_1;align=left;pointerEvents=1;fontColor=#000033;fillColor=none;direction=west;strokeColor=#3399FF;" vertex="1" parent="1">
          <mxGeometry x="852" y="190" width="12" height="37" as="geometry" />
        </mxCell>
        <mxCell id="A6Y4VwrHQMCKhlMzKKBG-24" value="AWS KMS or AWS&amp;nbsp;&lt;br&gt;Secrets Manager" style="text;html=1;align=left;verticalAlign=middle;resizable=0;points=[];autosize=1;strokeColor=none;fillColor=none;fontSize=12;" vertex="1" parent="1">
          <mxGeometry x="758" y="194" width="120" height="30" as="geometry" />
        </mxCell>
        <mxCell id="A6Y4VwrHQMCKhlMzKKBG-27" value="connect to" style="text;html=1;align=center;verticalAlign=middle;resizable=0;points=[];autosize=1;strokeColor=none;fillColor=none;fontSize=12;" vertex="1" parent="1">
          <mxGeometry x="886" y="44" width="70" height="20" as="geometry" />
        </mxCell>
        <mxCell id="A6Y4VwrHQMCKhlMzKKBG-29" value="Data&amp;nbsp;&lt;br&gt;Storage" style="rounded=0;whiteSpace=wrap;html=1;fontSize=12;strokeColor=default;fillColor=none;" vertex="1" parent="1">
          <mxGeometry x="1006" y="40" width="92" height="62" as="geometry" />
        </mxCell>
        <mxCell id="A6Y4VwrHQMCKhlMzKKBG-30" value="" style="endArrow=none;html=1;rounded=0;fontSize=12;" edge="1" parent="1">
          <mxGeometry width="50" height="50" relative="1" as="geometry">
            <mxPoint x="856" y="63" as="sourcePoint" />
            <mxPoint x="1004" y="63" as="targetPoint" />
          </mxGeometry>
        </mxCell>
        <mxCell id="A6Y4VwrHQMCKhlMzKKBG-34" value="AZ - a" style="text;html=1;align=center;verticalAlign=middle;resizable=0;points=[];autosize=1;strokeColor=none;fillColor=none;fontSize=10;" vertex="1" parent="1">
          <mxGeometry x="55" y="489" width="40" height="20" as="geometry" />
        </mxCell>
        <mxCell id="A6Y4VwrHQMCKhlMzKKBG-35" value="Master" style="text;html=1;align=center;verticalAlign=middle;resizable=0;points=[];autosize=1;strokeColor=none;fillColor=none;fontSize=10;" vertex="1" parent="1">
          <mxGeometry x="52" y="560" width="50" height="20" as="geometry" />
        </mxCell>
        <mxCell id="A6Y4VwrHQMCKhlMzKKBG-37" value="" style="endArrow=classic;html=1;rounded=0;fontSize=10;" edge="1" parent="1">
          <mxGeometry width="50" height="50" relative="1" as="geometry">
            <mxPoint x="72" y="606" as="sourcePoint" />
            <mxPoint x="72" y="584" as="targetPoint" />
          </mxGeometry>
        </mxCell>
        <mxCell id="A6Y4VwrHQMCKhlMzKKBG-38" value="" style="endArrow=classic;html=1;rounded=0;fontSize=10;strokeWidth=1;" edge="1" parent="1">
          <mxGeometry width="50" height="50" relative="1" as="geometry">
            <mxPoint x="94" y="584" as="sourcePoint" />
            <mxPoint x="94" y="606" as="targetPoint" />
          </mxGeometry>
        </mxCell>
        <mxCell id="A6Y4VwrHQMCKhlMzKKBG-39" value="" style="strokeWidth=2;html=1;shape=mxgraph.flowchart.database;whiteSpace=wrap;fontSize=10;fillColor=none;" vertex="1" parent="1">
          <mxGeometry x="59" y="516" width="36" height="40" as="geometry" />
        </mxCell>
        <mxCell id="A6Y4VwrHQMCKhlMzKKBG-41" value="" style="strokeWidth=2;html=1;shape=mxgraph.flowchart.database;whiteSpace=wrap;fontSize=10;fillColor=none;" vertex="1" parent="1">
          <mxGeometry x="66" y="615" width="20" height="20" as="geometry" />
        </mxCell>
        <mxCell id="A6Y4VwrHQMCKhlMzKKBG-42" value="" style="strokeWidth=2;html=1;shape=mxgraph.flowchart.database;whiteSpace=wrap;fontSize=10;fillColor=none;" vertex="1" parent="1">
          <mxGeometry x="91" y="615" width="20" height="20" as="geometry" />
        </mxCell>
        <mxCell id="A6Y4VwrHQMCKhlMzKKBG-43" value="read" style="text;html=1;align=center;verticalAlign=middle;resizable=0;points=[];autosize=1;strokeColor=none;fillColor=none;fontSize=10;" vertex="1" parent="1">
          <mxGeometry x="38" y="582" width="40" height="20" as="geometry" />
        </mxCell>
        <mxCell id="A6Y4VwrHQMCKhlMzKKBG-44" value="write" style="text;html=1;align=center;verticalAlign=middle;resizable=0;points=[];autosize=1;strokeColor=none;fillColor=none;fontSize=10;" vertex="1" parent="1">
          <mxGeometry x="88" y="580" width="40" height="20" as="geometry" />
        </mxCell>
        <mxCell id="A6Y4VwrHQMCKhlMzKKBG-45" value="AZ - b" style="text;html=1;align=center;verticalAlign=middle;resizable=0;points=[];autosize=1;strokeColor=none;fillColor=none;fontSize=10;" vertex="1" parent="1">
          <mxGeometry x="167" y="488" width="40" height="20" as="geometry" />
        </mxCell>
        <mxCell id="A6Y4VwrHQMCKhlMzKKBG-46" value="" style="strokeWidth=2;html=1;shape=mxgraph.flowchart.database;whiteSpace=wrap;fontSize=10;fillColor=none;" vertex="1" parent="1">
          <mxGeometry x="171" y="515" width="36" height="40" as="geometry" />
        </mxCell>
        <mxCell id="A6Y4VwrHQMCKhlMzKKBG-48" value="Replica" style="text;html=1;align=center;verticalAlign=middle;resizable=0;points=[];autosize=1;strokeColor=none;fillColor=none;fontSize=10;" vertex="1" parent="1">
          <mxGeometry x="164" y="559" width="50" height="20" as="geometry" />
        </mxCell>
        <mxCell id="A6Y4VwrHQMCKhlMzKKBG-49" value="" style="strokeWidth=2;html=1;shape=mxgraph.flowchart.database;whiteSpace=wrap;fontSize=10;fillColor=none;" vertex="1" parent="1">
          <mxGeometry x="178" y="614" width="20" height="20" as="geometry" />
        </mxCell>
        <mxCell id="A6Y4VwrHQMCKhlMzKKBG-50" value="" style="strokeWidth=2;html=1;shape=mxgraph.flowchart.database;whiteSpace=wrap;fontSize=10;fillColor=none;" vertex="1" parent="1">
          <mxGeometry x="203" y="614" width="20" height="20" as="geometry" />
        </mxCell>
        <mxCell id="A6Y4VwrHQMCKhlMzKKBG-54" value="" style="strokeWidth=2;html=1;shape=mxgraph.flowchart.database;whiteSpace=wrap;fontSize=10;fillColor=none;" vertex="1" parent="1">
          <mxGeometry x="317" y="615" width="20" height="20" as="geometry" />
        </mxCell>
        <mxCell id="A6Y4VwrHQMCKhlMzKKBG-55" value="" style="strokeWidth=2;html=1;shape=mxgraph.flowchart.database;whiteSpace=wrap;fontSize=10;fillColor=none;" vertex="1" parent="1">
          <mxGeometry x="292" y="615" width="20" height="20" as="geometry" />
        </mxCell>
        <mxCell id="A6Y4VwrHQMCKhlMzKKBG-56" value="read" style="text;html=1;align=center;verticalAlign=middle;resizable=0;points=[];autosize=1;strokeColor=none;fillColor=none;fontSize=10;" vertex="1" parent="1">
          <mxGeometry x="321" y="590" width="40" height="20" as="geometry" />
        </mxCell>
        <mxCell id="A6Y4VwrHQMCKhlMzKKBG-57" value="" style="strokeWidth=2;html=1;shape=mxgraph.flowchart.database;whiteSpace=wrap;fontSize=10;fillColor=none;" vertex="1" parent="1">
          <mxGeometry x="285" y="516" width="36" height="40" as="geometry" />
        </mxCell>
        <mxCell id="A6Y4VwrHQMCKhlMzKKBG-58" value="AZ - c" style="text;html=1;align=center;verticalAlign=middle;resizable=0;points=[];autosize=1;strokeColor=none;fillColor=none;fontSize=10;" vertex="1" parent="1">
          <mxGeometry x="281" y="489" width="40" height="20" as="geometry" />
        </mxCell>
        <mxCell id="A6Y4VwrHQMCKhlMzKKBG-60" value="Replica" style="text;html=1;align=center;verticalAlign=middle;resizable=0;points=[];autosize=1;strokeColor=none;fillColor=none;fontSize=10;" vertex="1" parent="1">
          <mxGeometry x="278" y="560" width="50" height="20" as="geometry" />
        </mxCell>
        <mxCell id="A6Y4VwrHQMCKhlMzKKBG-62" value="read" style="text;html=1;align=center;verticalAlign=middle;resizable=0;points=[];autosize=1;strokeColor=none;fillColor=none;fontSize=10;" vertex="1" parent="1">
          <mxGeometry x="207" y="585" width="40" height="20" as="geometry" />
        </mxCell>
        <mxCell id="A6Y4VwrHQMCKhlMzKKBG-73" value="" style="endArrow=classic;html=1;rounded=0;fontSize=10;" edge="1" parent="1">
          <mxGeometry width="50" height="50" relative="1" as="geometry">
            <mxPoint x="209" y="609" as="sourcePoint" />
            <mxPoint x="209" y="587" as="targetPoint" />
          </mxGeometry>
        </mxCell>
        <mxCell id="A6Y4VwrHQMCKhlMzKKBG-74" value="" style="endArrow=classic;html=1;rounded=0;fontSize=10;" edge="1" parent="1">
          <mxGeometry width="50" height="50" relative="1" as="geometry">
            <mxPoint x="325" y="606" as="sourcePoint" />
            <mxPoint x="325" y="584" as="targetPoint" />
          </mxGeometry>
        </mxCell>
        <mxCell id="A6Y4VwrHQMCKhlMzKKBG-77" value="" style="endArrow=classic;html=1;rounded=0;fontSize=10;strokeWidth=1;exitX=1;exitY=0.5;exitDx=0;exitDy=0;exitPerimeter=0;" edge="1" parent="1">
          <mxGeometry width="50" height="50" relative="1" as="geometry">
            <mxPoint x="100" y="542" as="sourcePoint" />
            <mxPoint x="190" y="610" as="targetPoint" />
          </mxGeometry>
        </mxCell>
        <mxCell id="A6Y4VwrHQMCKhlMzKKBG-78" value="" style="endArrow=classic;html=1;rounded=0;fontSize=10;strokeWidth=1;" edge="1" parent="1">
          <mxGeometry width="50" height="50" relative="1" as="geometry">
            <mxPoint x="99" y="533.5" as="sourcePoint" />
            <mxPoint x="302" y="610" as="targetPoint" />
          </mxGeometry>
        </mxCell>
        <mxCell id="A6Y4VwrHQMCKhlMzKKBG-81" value="&lt;font style=&quot;font-size: 12px;&quot;&gt;Amazon DB Cluster&lt;/font&gt;" style="text;html=1;align=center;verticalAlign=middle;resizable=0;points=[];autosize=1;strokeColor=none;fillColor=none;fontSize=10;" vertex="1" parent="1">
          <mxGeometry x="133" y="457" width="120" height="20" as="geometry" />
        </mxCell>
        <mxCell id="A6Y4VwrHQMCKhlMzKKBG-83" value="" style="rounded=1;whiteSpace=wrap;html=1;fontSize=12;strokeColor=#FF9933;fillColor=none;dashed=1;" vertex="1" parent="1">
          <mxGeometry x="43" y="610" width="312" height="47" as="geometry" />
        </mxCell>
        <mxCell id="A6Y4VwrHQMCKhlMzKKBG-84" value="Data Copies" style="text;html=1;align=center;verticalAlign=middle;resizable=0;points=[];autosize=1;strokeColor=none;fillColor=none;fontSize=10;" vertex="1" parent="1">
          <mxGeometry x="55" y="633" width="70" height="20" as="geometry" />
        </mxCell>
        <mxCell id="A6Y4VwrHQMCKhlMzKKBG-85" value="Data Copies" style="text;html=1;align=center;verticalAlign=middle;resizable=0;points=[];autosize=1;strokeColor=none;fillColor=none;fontSize=10;" vertex="1" parent="1">
          <mxGeometry x="166" y="632" width="70" height="20" as="geometry" />
        </mxCell>
        <mxCell id="A6Y4VwrHQMCKhlMzKKBG-86" value="Data Copies" style="text;html=1;align=center;verticalAlign=middle;resizable=0;points=[];autosize=1;strokeColor=none;fillColor=none;fontSize=10;" vertex="1" parent="1">
          <mxGeometry x="284" y="633" width="70" height="20" as="geometry" />
        </mxCell>
        <mxCell id="A6Y4VwrHQMCKhlMzKKBG-31" value="Amazon&#xa;Aurora" style="sketch=0;outlineConnect=0;fontColor=#232F3E;gradientColor=none;strokeColor=#ffffff;fillColor=#232F3E;dashed=0;verticalLabelPosition=middle;verticalAlign=bottom;align=center;html=1;whiteSpace=wrap;fontSize=10;fontStyle=1;spacing=3;shape=mxgraph.aws4.productIcon;prIcon=mxgraph.aws4.aurora;" vertex="1" parent="1">
          <mxGeometry x="178" y="381" width="40" height="70" as="geometry" />
        </mxCell>
        <mxCell id="A6Y4VwrHQMCKhlMzKKBG-88" value="&lt;font style=&quot;font-size: 12px;&quot;&gt;&lt;b&gt;Single&lt;/b&gt; master replication&lt;/font&gt;" style="text;html=1;align=center;verticalAlign=middle;resizable=0;points=[];autosize=1;strokeColor=none;fillColor=none;fontSize=10;rotation=270;" vertex="1" parent="1">
          <mxGeometry x="-46" y="557.5" width="150" height="20" as="geometry" />
        </mxCell>
        <mxCell id="A6Y4VwrHQMCKhlMzKKBG-89" value="write" style="text;html=1;align=center;verticalAlign=middle;resizable=0;points=[];autosize=1;strokeColor=none;fillColor=none;fontSize=10;" vertex="1" parent="1">
          <mxGeometry x="96" y="520" width="40" height="20" as="geometry" />
        </mxCell>
        <mxCell id="A6Y4VwrHQMCKhlMzKKBG-90" value="write" style="text;html=1;align=center;verticalAlign=middle;resizable=0;points=[];autosize=1;strokeColor=none;fillColor=none;fontSize=10;" vertex="1" parent="1">
          <mxGeometry x="94" y="558" width="40" height="20" as="geometry" />
        </mxCell>
        <mxCell id="A6Y4VwrHQMCKhlMzKKBG-92" value="&lt;font style=&quot;font-size: 12px;&quot;&gt;Endpoint&lt;/font&gt;" style="sketch=0;outlineConnect=0;fontColor=#232F3E;gradientColor=none;fillColor=#4D27AA;strokeColor=none;dashed=0;verticalLabelPosition=bottom;verticalAlign=top;align=center;html=1;fontSize=12;fontStyle=0;aspect=fixed;pointerEvents=1;shape=mxgraph.aws4.endpoint;" vertex="1" parent="1">
          <mxGeometry x="366" y="555" width="20" height="20" as="geometry" />
        </mxCell>
        <mxCell id="A6Y4VwrHQMCKhlMzKKBG-93" value="" style="endArrow=none;html=1;rounded=0;fontSize=12;strokeWidth=1;" edge="1" parent="1">
          <mxGeometry width="50" height="50" relative="1" as="geometry">
            <mxPoint x="387" y="566" as="sourcePoint" />
            <mxPoint x="467" y="566" as="targetPoint" />
          </mxGeometry>
        </mxCell>
        <mxCell id="A6Y4VwrHQMCKhlMzKKBG-94" value="" style="rounded=0;whiteSpace=wrap;html=1;fontSize=12;strokeColor=#000033;fillColor=none;" vertex="1" parent="1">
          <mxGeometry x="446" y="507" width="54" height="114" as="geometry" />
        </mxCell>
        <mxCell id="A6Y4VwrHQMCKhlMzKKBG-95" value="App" style="text;html=1;align=center;verticalAlign=middle;resizable=0;points=[];autosize=1;strokeColor=none;fillColor=none;fontSize=12;" vertex="1" parent="1">
          <mxGeometry x="449.5" y="487" width="40" height="20" as="geometry" />
        </mxCell>
        <mxCell id="A6Y4VwrHQMCKhlMzKKBG-96" value="" style="rounded=1;whiteSpace=wrap;html=1;fontSize=12;strokeColor=#000033;fillColor=none;" vertex="1" parent="1">
          <mxGeometry x="460.5" y="551.5" width="20" height="23.5" as="geometry" />
        </mxCell>
        <mxCell id="A6Y4VwrHQMCKhlMzKKBG-97" value="" style="verticalLabelPosition=bottom;html=1;verticalAlign=top;align=center;strokeColor=none;fillColor=#00BEF2;shape=mxgraph.azure.service_endpoint;fontSize=12;strokeWidth=0;" vertex="1" parent="1">
          <mxGeometry x="466" y="562" width="50" height="6.5" as="geometry" />
        </mxCell>
        <mxCell id="A6Y4VwrHQMCKhlMzKKBG-98" value="&lt;b&gt;Manage this endpoint BUT&lt;br&gt;don&#39;t have to worry&amp;nbsp; about &lt;br&gt;balancing code, rerouting,&lt;br&gt;&amp;nbsp;connectors, etc&amp;nbsp;&lt;/b&gt;" style="text;html=1;align=center;verticalAlign=middle;resizable=0;points=[];autosize=1;strokeColor=none;fillColor=none;fontSize=12;" vertex="1" parent="1">
          <mxGeometry x="511" y="535" width="170" height="60" as="geometry" />
        </mxCell>
        <mxCell id="A6Y4VwrHQMCKhlMzKKBG-99" value="Just write from Master(priority instances) to all cluster&lt;br&gt;&lt;div style=&quot;&quot;&gt;&lt;span style=&quot;background-color: initial;&quot;&gt;read from all nodes&lt;/span&gt;&lt;/div&gt;" style="text;html=1;align=left;verticalAlign=middle;resizable=0;points=[];autosize=1;strokeColor=default;fillColor=none;fontSize=12;fontStyle=1" vertex="1" parent="1">
          <mxGeometry x="18" y="680" width="330" height="30" as="geometry" />
        </mxCell>
        <mxCell id="A6Y4VwrHQMCKhlMzKKBG-100" value="In &lt;b&gt;Multimaster replication&lt;/b&gt; all DB instances can perform &lt;b&gt;Write operations&lt;/b&gt;" style="text;html=1;align=left;verticalAlign=middle;resizable=0;points=[];autosize=1;strokeColor=none;fillColor=none;fontSize=12;" vertex="1" parent="1">
          <mxGeometry x="13" y="722" width="410" height="20" as="geometry" />
        </mxCell>
        <mxCell id="A6Y4VwrHQMCKhlMzKKBG-101" value="" style="rounded=0;whiteSpace=wrap;html=1;fontSize=12;strokeColor=#FF3333;strokeWidth=1;fillColor=none;" vertex="1" parent="1">
          <mxGeometry x="22" y="596" width="18" height="45" as="geometry" />
        </mxCell>
        <mxCell id="A6Y4VwrHQMCKhlMzKKBG-102" value="" style="endArrow=none;html=1;rounded=0;fontSize=12;strokeWidth=1;" edge="1" parent="1">
          <mxGeometry width="50" height="50" relative="1" as="geometry">
            <mxPoint x="31" y="680" as="sourcePoint" />
            <mxPoint x="30.5" y="641" as="targetPoint" />
          </mxGeometry>
        </mxCell>
        <mxCell id="A6Y4VwrHQMCKhlMzKKBG-103" value="&lt;b&gt;Aurora Global DB runs span over &lt;font color=&quot;#ff3333&quot;&gt;multiple&lt;/font&gt; &lt;font color=&quot;#ff3333&quot;&gt;AWS Regions&lt;/font&gt;&lt;/b&gt;" style="text;html=1;align=left;verticalAlign=middle;resizable=0;points=[];autosize=1;strokeColor=none;fillColor=none;fontSize=12;" vertex="1" parent="1">
          <mxGeometry x="12" y="775" width="340" height="20" as="geometry" />
        </mxCell>
        <mxCell id="A6Y4VwrHQMCKhlMzKKBG-104" value="&lt;font color=&quot;#000033&quot;&gt;&lt;b&gt;Aurora Serverless&lt;/b&gt; is NOT Suported by &lt;/font&gt;&lt;b style=&quot;&quot;&gt;AMAZON RDS which run ONLY in ONE Region&lt;/b&gt;" style="text;html=1;align=left;verticalAlign=middle;resizable=0;points=[];autosize=1;strokeColor=none;fillColor=none;fontSize=12;fontColor=#FF3333;" vertex="1" parent="1">
          <mxGeometry x="13.5" y="747" width="490" height="20" as="geometry" />
        </mxCell>
        <mxCell id="A6Y4VwrHQMCKhlMzKKBG-105" value="Amazon&#xa;Aurora" style="sketch=0;outlineConnect=0;fontColor=#232F3E;gradientColor=none;strokeColor=#ffffff;fillColor=#232F3E;dashed=0;verticalLabelPosition=middle;verticalAlign=bottom;align=center;html=1;whiteSpace=wrap;fontSize=10;fontStyle=1;spacing=3;shape=mxgraph.aws4.productIcon;prIcon=mxgraph.aws4.aurora;" vertex="1" parent="1">
          <mxGeometry x="268" y="850" width="40" height="70" as="geometry" />
        </mxCell>
        <mxCell id="A6Y4VwrHQMCKhlMzKKBG-106" value="" style="shape=partialRectangle;whiteSpace=wrap;html=1;bottom=1;right=1;left=1;top=0;fillColor=none;routingCenterX=-0.5;rotation=-180;direction=east;" vertex="1" parent="1">
          <mxGeometry x="113" y="941" width="1178" height="15" as="geometry" />
        </mxCell>
        <mxCell id="A6Y4VwrHQMCKhlMzKKBG-107" value="" style="line;strokeWidth=2;direction=south;html=1;" vertex="1" parent="1">
          <mxGeometry x="287" y="920" width="1" height="20" as="geometry" />
        </mxCell>
        <mxCell id="A6Y4VwrHQMCKhlMzKKBG-108" value="Availability" style="ellipse;whiteSpace=wrap;html=1;dashed=1;strokeColor=#FF9933;fillColor=none;" vertex="1" parent="1">
          <mxGeometry x="46" y="960" width="106" height="30" as="geometry" />
        </mxCell>
        <mxCell id="A6Y4VwrHQMCKhlMzKKBG-109" value="&lt;font color=&quot;#000033&quot;&gt;Data&lt;/font&gt;" style="rounded=1;whiteSpace=wrap;html=1;fontSize=12;fontColor=#FF3333;strokeColor=default;strokeWidth=1;fillColor=none;" vertex="1" parent="1">
          <mxGeometry x="29" y="1020" width="59" height="20" as="geometry" />
        </mxCell>
        <mxCell id="A6Y4VwrHQMCKhlMzKKBG-112" value="&lt;font color=&quot;#000033&quot;&gt;Replicas&lt;/font&gt;" style="rounded=1;whiteSpace=wrap;html=1;fontSize=12;fontColor=#FF3333;strokeColor=default;strokeWidth=1;fillColor=none;" vertex="1" parent="1">
          <mxGeometry x="143" y="1021" width="59" height="20" as="geometry" />
        </mxCell>
        <mxCell id="A6Y4VwrHQMCKhlMzKKBG-114" value="" style="rounded=0;whiteSpace=wrap;html=1;fontSize=12;fontColor=#000033;strokeColor=default;strokeWidth=1;fillColor=none;" vertex="1" parent="1">
          <mxGeometry x="19.5" y="1085" width="127.5" height="75" as="geometry" />
        </mxCell>
        <mxCell id="A6Y4VwrHQMCKhlMzKKBG-127" value="" style="rounded=0;whiteSpace=wrap;html=1;fontSize=12;fontColor=#000033;strokeColor=default;strokeWidth=1;fillColor=none;" vertex="1" parent="1">
          <mxGeometry x="27" y="1095" width="34.5" height="52" as="geometry" />
        </mxCell>
        <mxCell id="A6Y4VwrHQMCKhlMzKKBG-128" value="" style="strokeWidth=2;html=1;shape=mxgraph.flowchart.database;whiteSpace=wrap;fontSize=12;fontColor=#000033;fillColor=none;" vertex="1" parent="1">
          <mxGeometry x="33.5" y="1100" width="23" height="20" as="geometry" />
        </mxCell>
        <mxCell id="A6Y4VwrHQMCKhlMzKKBG-129" value="" style="strokeWidth=2;html=1;shape=mxgraph.flowchart.database;whiteSpace=wrap;fontSize=12;fontColor=#000033;fillColor=none;" vertex="1" parent="1">
          <mxGeometry x="34.5" y="1124" width="23" height="19" as="geometry" />
        </mxCell>
        <mxCell id="A6Y4VwrHQMCKhlMzKKBG-130" value="" style="rounded=0;whiteSpace=wrap;html=1;fontSize=12;fontColor=#000033;strokeColor=default;strokeWidth=1;fillColor=none;" vertex="1" parent="1">
          <mxGeometry x="69" y="1095" width="34.5" height="52" as="geometry" />
        </mxCell>
        <mxCell id="A6Y4VwrHQMCKhlMzKKBG-131" value="" style="strokeWidth=2;html=1;shape=mxgraph.flowchart.database;whiteSpace=wrap;fontSize=12;fontColor=#000033;fillColor=none;" vertex="1" parent="1">
          <mxGeometry x="75.5" y="1100" width="23" height="20" as="geometry" />
        </mxCell>
        <mxCell id="A6Y4VwrHQMCKhlMzKKBG-132" value="" style="strokeWidth=2;html=1;shape=mxgraph.flowchart.database;whiteSpace=wrap;fontSize=12;fontColor=#000033;fillColor=none;" vertex="1" parent="1">
          <mxGeometry x="76.5" y="1124" width="23" height="19" as="geometry" />
        </mxCell>
        <mxCell id="A6Y4VwrHQMCKhlMzKKBG-133" value="" style="rounded=0;whiteSpace=wrap;html=1;fontSize=12;fontColor=#000033;strokeColor=default;strokeWidth=1;fillColor=none;" vertex="1" parent="1">
          <mxGeometry x="108" y="1095" width="34.5" height="52" as="geometry" />
        </mxCell>
        <mxCell id="A6Y4VwrHQMCKhlMzKKBG-134" value="" style="strokeWidth=2;html=1;shape=mxgraph.flowchart.database;whiteSpace=wrap;fontSize=12;fontColor=#000033;fillColor=none;" vertex="1" parent="1">
          <mxGeometry x="114.5" y="1100" width="23" height="20" as="geometry" />
        </mxCell>
        <mxCell id="A6Y4VwrHQMCKhlMzKKBG-135" value="" style="strokeWidth=2;html=1;shape=mxgraph.flowchart.database;whiteSpace=wrap;fontSize=12;fontColor=#000033;fillColor=none;" vertex="1" parent="1">
          <mxGeometry x="115.5" y="1124" width="23" height="19" as="geometry" />
        </mxCell>
        <mxCell id="A6Y4VwrHQMCKhlMzKKBG-138" value="" style="rounded=0;whiteSpace=wrap;html=1;fontSize=12;fontColor=#000033;strokeColor=default;strokeWidth=1;fillColor=none;" vertex="1" parent="1">
          <mxGeometry x="18.5" y="1196" width="127.5" height="75" as="geometry" />
        </mxCell>
        <mxCell id="A6Y4VwrHQMCKhlMzKKBG-139" value="" style="rounded=0;whiteSpace=wrap;html=1;fontSize=12;fontColor=#000033;strokeColor=default;strokeWidth=1;fillColor=none;" vertex="1" parent="1">
          <mxGeometry x="26" y="1206" width="34.5" height="52" as="geometry" />
        </mxCell>
        <mxCell id="A6Y4VwrHQMCKhlMzKKBG-140" value="" style="strokeWidth=2;html=1;shape=mxgraph.flowchart.database;whiteSpace=wrap;fontSize=12;fontColor=#000033;fillColor=none;" vertex="1" parent="1">
          <mxGeometry x="32.5" y="1211" width="23" height="20" as="geometry" />
        </mxCell>
        <mxCell id="A6Y4VwrHQMCKhlMzKKBG-141" value="" style="strokeWidth=2;html=1;shape=mxgraph.flowchart.database;whiteSpace=wrap;fontSize=12;fontColor=#000033;fillColor=none;" vertex="1" parent="1">
          <mxGeometry x="33.5" y="1235" width="23" height="19" as="geometry" />
        </mxCell>
        <mxCell id="A6Y4VwrHQMCKhlMzKKBG-142" value="" style="rounded=0;whiteSpace=wrap;html=1;fontSize=12;fontColor=#000033;strokeColor=default;strokeWidth=1;fillColor=none;" vertex="1" parent="1">
          <mxGeometry x="68" y="1206" width="34.5" height="52" as="geometry" />
        </mxCell>
        <mxCell id="A6Y4VwrHQMCKhlMzKKBG-143" value="" style="strokeWidth=2;html=1;shape=mxgraph.flowchart.database;whiteSpace=wrap;fontSize=12;fontColor=#000033;fillColor=none;" vertex="1" parent="1">
          <mxGeometry x="74.5" y="1211" width="23" height="20" as="geometry" />
        </mxCell>
        <mxCell id="A6Y4VwrHQMCKhlMzKKBG-144" value="" style="strokeWidth=2;html=1;shape=mxgraph.flowchart.database;whiteSpace=wrap;fontSize=12;fontColor=#000033;fillColor=none;" vertex="1" parent="1">
          <mxGeometry x="75.5" y="1235" width="23" height="19" as="geometry" />
        </mxCell>
        <mxCell id="A6Y4VwrHQMCKhlMzKKBG-145" value="" style="rounded=0;whiteSpace=wrap;html=1;fontSize=12;fontColor=#000033;strokeColor=default;strokeWidth=1;fillColor=none;" vertex="1" parent="1">
          <mxGeometry x="107" y="1206" width="34.5" height="52" as="geometry" />
        </mxCell>
        <mxCell id="A6Y4VwrHQMCKhlMzKKBG-146" value="" style="strokeWidth=2;html=1;shape=mxgraph.flowchart.database;whiteSpace=wrap;fontSize=12;fontColor=#000033;fillColor=none;" vertex="1" parent="1">
          <mxGeometry x="113.5" y="1211" width="23" height="20" as="geometry" />
        </mxCell>
        <mxCell id="A6Y4VwrHQMCKhlMzKKBG-147" value="" style="strokeWidth=2;html=1;shape=mxgraph.flowchart.database;whiteSpace=wrap;fontSize=12;fontColor=#000033;fillColor=none;" vertex="1" parent="1">
          <mxGeometry x="114.5" y="1235" width="23" height="19" as="geometry" />
        </mxCell>
        <mxCell id="A6Y4VwrHQMCKhlMzKKBG-148" value="Region" style="text;html=1;align=center;verticalAlign=middle;resizable=0;points=[];autosize=1;strokeColor=none;fillColor=none;fontSize=12;fontColor=#000033;" vertex="1" parent="1">
          <mxGeometry x="96.25" y="1160.5" width="50" height="20" as="geometry" />
        </mxCell>
        <mxCell id="A6Y4VwrHQMCKhlMzKKBG-149" value="Region" style="text;html=1;align=center;verticalAlign=middle;resizable=0;points=[];autosize=1;strokeColor=none;fillColor=none;fontSize=12;fontColor=#000033;" vertex="1" parent="1">
          <mxGeometry x="97" y="1271" width="50" height="20" as="geometry" />
        </mxCell>
        <mxCell id="A6Y4VwrHQMCKhlMzKKBG-150" value="" style="shape=curlyBracket;whiteSpace=wrap;html=1;rounded=1;flipH=1;fontSize=12;fontColor=#000033;strokeColor=default;strokeWidth=1;fillColor=none;" vertex="1" parent="1">
          <mxGeometry x="144" y="1079" width="20" height="207" as="geometry" />
        </mxCell>
        <mxCell id="A6Y4VwrHQMCKhlMzKKBG-151" value="IF NOT in RDS can be &lt;br&gt;spaned in several region" style="text;html=1;align=left;verticalAlign=middle;resizable=0;points=[];autosize=1;strokeColor=none;fillColor=none;fontSize=12;fontColor=#000033;fontStyle=1" vertex="1" parent="1">
          <mxGeometry x="166" y="1167" width="160" height="30" as="geometry" />
        </mxCell>
        <mxCell id="A6Y4VwrHQMCKhlMzKKBG-153" value="" style="endArrow=none;html=1;rounded=0;fontSize=12;fontColor=#000033;strokeWidth=1;" edge="1" parent="1">
          <mxGeometry width="50" height="50" relative="1" as="geometry">
            <mxPoint x="57" y="1082" as="sourcePoint" />
            <mxPoint x="57" y="1045" as="targetPoint" />
          </mxGeometry>
        </mxCell>
        <mxCell id="A6Y4VwrHQMCKhlMzKKBG-155" value="" style="endArrow=none;html=1;rounded=0;fontSize=12;fontColor=#000033;strokeWidth=1;" edge="1" parent="1">
          <mxGeometry width="50" height="50" relative="1" as="geometry">
            <mxPoint x="72" y="1018" as="sourcePoint" />
            <mxPoint x="82" y="991" as="targetPoint" />
          </mxGeometry>
        </mxCell>
        <mxCell id="A6Y4VwrHQMCKhlMzKKBG-156" value="" style="endArrow=none;html=1;rounded=0;fontSize=12;fontColor=#000033;strokeWidth=1;" edge="1" parent="1">
          <mxGeometry width="50" height="50" relative="1" as="geometry">
            <mxPoint x="169" y="1021" as="sourcePoint" />
            <mxPoint x="141" y="984" as="targetPoint" />
          </mxGeometry>
        </mxCell>
        <mxCell id="A6Y4VwrHQMCKhlMzKKBG-158" value="" style="endArrow=classic;html=1;rounded=0;fontSize=12;fontColor=#000033;strokeWidth=1;" edge="1" parent="1">
          <mxGeometry width="50" height="50" relative="1" as="geometry">
            <mxPoint x="212" y="1043" as="sourcePoint" />
            <mxPoint x="212" y="1013" as="targetPoint" />
          </mxGeometry>
        </mxCell>
        <mxCell id="A6Y4VwrHQMCKhlMzKKBG-159" value="Up 15" style="text;html=1;align=center;verticalAlign=middle;resizable=0;points=[];autosize=1;strokeColor=none;fillColor=none;fontSize=12;fontColor=#000033;" vertex="1" parent="1">
          <mxGeometry x="205" y="1020" width="50" height="20" as="geometry" />
        </mxCell>
        <mxCell id="A6Y4VwrHQMCKhlMzKKBG-160" value="&amp;nbsp;DB Instances class types" style="ellipse;whiteSpace=wrap;html=1;dashed=1;strokeColor=#FF9933;fillColor=none;align=center;" vertex="1" parent="1">
          <mxGeometry x="354" y="960" width="150" height="30" as="geometry" />
        </mxCell>
        <mxCell id="A6Y4VwrHQMCKhlMzKKBG-162" value="&lt;font color=&quot;#000033&quot;&gt;Serverless v2&lt;/font&gt;" style="rounded=1;whiteSpace=wrap;html=1;fontSize=12;fontColor=#FF3333;strokeColor=default;strokeWidth=1;fillColor=none;" vertex="1" parent="1">
          <mxGeometry x="273" y="1020" width="84" height="20" as="geometry" />
        </mxCell>
        <mxCell id="A6Y4VwrHQMCKhlMzKKBG-164" value="" style="endArrow=none;html=1;rounded=0;fontSize=12;fontColor=#000033;strokeWidth=1;entryX=0.05;entryY=0.815;entryDx=0;entryDy=0;entryPerimeter=0;" edge="1" parent="1" target="A6Y4VwrHQMCKhlMzKKBG-160">
          <mxGeometry width="50" height="50" relative="1" as="geometry">
            <mxPoint x="322" y="1019" as="sourcePoint" />
            <mxPoint x="332" y="992" as="targetPoint" />
          </mxGeometry>
        </mxCell>
        <mxCell id="A6Y4VwrHQMCKhlMzKKBG-165" value="" style="endArrow=none;html=1;rounded=0;fontSize=12;fontColor=#000033;strokeWidth=1;" edge="1" parent="1">
          <mxGeometry width="50" height="50" relative="1" as="geometry">
            <mxPoint x="310" y="1070" as="sourcePoint" />
            <mxPoint x="310" y="1040" as="targetPoint" />
          </mxGeometry>
        </mxCell>
        <mxCell id="A6Y4VwrHQMCKhlMzKKBG-166" value="db.serverless" style="text;html=1;align=center;verticalAlign=middle;resizable=0;points=[];autosize=1;strokeColor=none;fillColor=none;fontSize=12;fontColor=#000033;" vertex="1" parent="1">
          <mxGeometry x="266" y="1069" width="90" height="20" as="geometry" />
        </mxCell>
        <mxCell id="A6Y4VwrHQMCKhlMzKKBG-167" value="&lt;font color=&quot;#000033&quot;&gt;memory optimized&lt;/font&gt;" style="rounded=1;whiteSpace=wrap;html=1;fontSize=12;fontColor=#FF3333;strokeColor=default;strokeWidth=1;fillColor=none;" vertex="1" parent="1">
          <mxGeometry x="367" y="1019" width="88" height="31" as="geometry" />
        </mxCell>
        <mxCell id="A6Y4VwrHQMCKhlMzKKBG-168" value="" style="endArrow=none;html=1;rounded=0;fontSize=12;fontColor=#000033;strokeWidth=1;entryX=0.324;entryY=0.949;entryDx=0;entryDy=0;entryPerimeter=0;" edge="1" parent="1" target="A6Y4VwrHQMCKhlMzKKBG-160">
          <mxGeometry width="50" height="50" relative="1" as="geometry">
            <mxPoint x="397" y="1018" as="sourcePoint" />
            <mxPoint x="397" y="998" as="targetPoint" />
          </mxGeometry>
        </mxCell>
        <mxCell id="A6Y4VwrHQMCKhlMzKKBG-169" value="&lt;font color=&quot;#000033&quot;&gt;EC2 instances types&amp;nbsp;&lt;/font&gt;" style="rounded=1;whiteSpace=wrap;html=1;fontSize=12;fontColor=#FF3333;strokeColor=default;strokeWidth=1;fillColor=none;" vertex="1" parent="1">
          <mxGeometry x="463" y="1021" width="88" height="31" as="geometry" />
        </mxCell>
        <mxCell id="A6Y4VwrHQMCKhlMzKKBG-170" value="" style="endArrow=none;html=1;rounded=0;fontSize=12;fontColor=#000033;strokeWidth=1;entryX=0.757;entryY=0.882;entryDx=0;entryDy=0;entryPerimeter=0;" edge="1" parent="1" target="A6Y4VwrHQMCKhlMzKKBG-160">
          <mxGeometry width="50" height="50" relative="1" as="geometry">
            <mxPoint x="489" y="1021" as="sourcePoint" />
            <mxPoint x="470" y="1000" as="targetPoint" />
          </mxGeometry>
        </mxCell>
        <mxCell id="A6Y4VwrHQMCKhlMzKKBG-171" value="" style="endArrow=none;html=1;rounded=0;fontSize=12;fontColor=#000033;strokeWidth=1;entryX=1;entryY=0.5;entryDx=0;entryDy=0;" edge="1" parent="1" target="A6Y4VwrHQMCKhlMzKKBG-160">
          <mxGeometry width="50" height="50" relative="1" as="geometry">
            <mxPoint x="589" y="1021" as="sourcePoint" />
            <mxPoint x="541.0330085889909" y="988.6066017177982" as="targetPoint" />
          </mxGeometry>
        </mxCell>
        <mxCell id="A6Y4VwrHQMCKhlMzKKBG-172" value="&lt;font color=&quot;#000033&quot;&gt;burstable-performance DB instances types&amp;nbsp;&lt;/font&gt;" style="rounded=1;whiteSpace=wrap;html=1;fontSize=12;fontColor=#FF3333;strokeColor=default;strokeWidth=1;fillColor=none;" vertex="1" parent="1">
          <mxGeometry x="563" y="1021" width="148" height="31" as="geometry" />
        </mxCell>
        <mxCell id="A6Y4VwrHQMCKhlMzKKBG-173" value="Security" style="ellipse;whiteSpace=wrap;html=1;dashed=1;strokeColor=#FF9933;fillColor=none;" vertex="1" parent="1">
          <mxGeometry x="770" y="960" width="106" height="30" as="geometry" />
        </mxCell>
        <mxCell id="A6Y4VwrHQMCKhlMzKKBG-174" value="&lt;font color=&quot;#000033&quot;&gt;DB Authentication&lt;/font&gt;" style="rounded=1;whiteSpace=wrap;html=1;fontSize=12;fontColor=#FF3333;strokeColor=default;strokeWidth=1;fillColor=none;" vertex="1" parent="1">
          <mxGeometry x="739" y="1021" width="88" height="31" as="geometry" />
        </mxCell>
        <mxCell id="A6Y4VwrHQMCKhlMzKKBG-175" value="&lt;font color=&quot;#000033&quot;&gt;Data Protection&lt;/font&gt;" style="rounded=1;whiteSpace=wrap;html=1;fontSize=12;fontColor=#FF3333;strokeColor=default;strokeWidth=1;fillColor=none;" vertex="1" parent="1">
          <mxGeometry x="842" y="1022" width="88" height="31" as="geometry" />
        </mxCell>
        <mxCell id="A6Y4VwrHQMCKhlMzKKBG-176" value="" style="endArrow=none;html=1;rounded=0;fontSize=12;fontColor=#000033;strokeWidth=1;entryX=0.235;entryY=0.87;entryDx=0;entryDy=0;entryPerimeter=0;" edge="1" parent="1" target="A6Y4VwrHQMCKhlMzKKBG-173">
          <mxGeometry width="50" height="50" relative="1" as="geometry">
            <mxPoint x="782" y="1020" as="sourcePoint" />
            <mxPoint x="792" y="993" as="targetPoint" />
          </mxGeometry>
        </mxCell>
        <mxCell id="A6Y4VwrHQMCKhlMzKKBG-177" value="" style="endArrow=none;html=1;rounded=0;fontSize=12;fontColor=#000033;strokeWidth=1;" edge="1" parent="1">
          <mxGeometry width="50" height="50" relative="1" as="geometry">
            <mxPoint x="870" y="1019" as="sourcePoint" />
            <mxPoint x="846" y="990" as="targetPoint" />
          </mxGeometry>
        </mxCell>
        <mxCell id="A6Y4VwrHQMCKhlMzKKBG-178" value="" style="endArrow=none;html=1;rounded=0;fontSize=12;fontColor=#000033;strokeWidth=1;" edge="1" parent="1">
          <mxGeometry width="50" height="50" relative="1" as="geometry">
            <mxPoint x="774" y="1085" as="sourcePoint" />
            <mxPoint x="774" y="1055" as="targetPoint" />
          </mxGeometry>
        </mxCell>
        <mxCell id="A6Y4VwrHQMCKhlMzKKBG-179" value="&lt;ol&gt;&lt;li&gt;passsword&lt;/li&gt;&lt;li&gt;IAM&lt;/li&gt;&lt;li&gt;kerberos&lt;/li&gt;&lt;/ol&gt;" style="text;html=1;align=left;verticalAlign=middle;resizable=0;points=[];autosize=1;strokeColor=none;fillColor=none;fontSize=12;fontColor=#000033;" vertex="1" parent="1">
          <mxGeometry x="721" y="1072" width="110" height="70" as="geometry" />
        </mxCell>
        <mxCell id="A6Y4VwrHQMCKhlMzKKBG-180" value="" style="endArrow=none;html=1;rounded=0;fontSize=12;fontColor=#000033;strokeWidth=1;" edge="1" parent="1">
          <mxGeometry width="50" height="50" relative="1" as="geometry">
            <mxPoint x="880" y="1084" as="sourcePoint" />
            <mxPoint x="880" y="1054" as="targetPoint" />
          </mxGeometry>
        </mxCell>
        <mxCell id="A6Y4VwrHQMCKhlMzKKBG-181" value="Share respnsability &lt;br&gt;Model&amp;nbsp; (AWS)" style="text;html=1;align=center;verticalAlign=middle;resizable=0;points=[];autosize=1;strokeColor=none;fillColor=none;fontSize=12;fontColor=#000033;" vertex="1" parent="1">
          <mxGeometry x="831" y="1085" width="120" height="30" as="geometry" />
        </mxCell>
      </root>
    </mxGraphModel>
  </diagram>
</mxfile>
